<?xml version="1.0" standalone="no"?>
<!DOCTYPE svg PUBLIC "-//W3C//DTD SVG 20010904//EN"
 "http://www.w3.org/TR/2001/REC-SVG-20010904/DTD/svg10.dtd">
<svg version="1.0" xmlns="http://www.w3.org/2000/svg"
 width="128.000000pt" height="58.000000pt" viewBox="0 0 1280.000000 580.000000"
 preserveAspectRatio="xMidYMid meet">
<metadata>
Created by potrace 1.15, written by Peter Selinger 2001-2017
</metadata>
<g transform="translate(0.000000,580.000000) scale(0.100000,-0.100000)"
fill="#FFE7C9" stroke="black" stroke-width="100px">
<path d="M10955 5781 c-39 -9 -123 -38 -188 -64 -170 -69 -329 -106 -470 -108
l-52 -1 49 -17 c57 -20 96 -61 96 -100 0 -15 -13 -47 -29 -72 -72 -114 -277
-181 -482 -158 -107 12 -185 34 -309 87 -178 76 -257 95 -410 95 -125 1 -142
-2 -221 -29 -119 -42 -190 -84 -385 -229 -256 -189 -425 -265 -596 -265 -65 0
-120 -15 -261 -69 -105 -40 -110 -41 -235 -41 -198 0 -394 -32 -677 -111 -60
-17 -438 -140 -840 -274 -711 -238 -910 -300 -1240 -386 -299 -77 -430 -158
-870 -539 -177 -153 -220 -171 -530 -229 -179 -34 -237 -52 -343 -105 -177
-89 -315 -190 -477 -348 -60 -59 -107 -107 -104 -108 4 0 94 64 202 143 279
202 479 326 510 314 26 -10 21 -65 -12 -144 -51 -118 -158 -296 -186 -307 -8
-3 -50 13 -94 35 -43 21 -87 39 -96 39 -23 0 -96 -52 -134 -95 -17 -20 -61
-81 -97 -136 -37 -54 -72 -99 -80 -99 -7 0 -32 22 -56 50 -24 27 -48 50 -54
50 -36 0 -81 -89 -119 -239 -27 -107 -44 -149 -67 -169 -7 -6 -84 -22 -171
-35 -206 -32 -241 -49 -282 -135 -16 -35 -96 -196 -178 -358 -81 -162 -145
-299 -142 -303 2 -5 -4 -20 -15 -34 l-20 -26 72 -15 c40 -8 95 -19 123 -23
l49 -8 -134 -95 c-301 -212 -724 -537 -1151 -885 -167 -136 -226 -190 -222
-202 5 -13 9 -12 23 8 l18 23 60 -27 c33 -15 74 -30 92 -33 30 -6 32 -5 26 15
-19 66 -23 61 46 61 75 0 136 25 165 66 22 31 46 104 37 113 -3 3 124 70 283
147 285 140 288 141 304 121 17 -20 17 -20 70 14 l54 34 -32 5 c-27 4 39 39
471 249 275 135 1062 518 1747 852 l1246 607 164 37 c473 105 899 186 1240
234 191 27 642 71 1519 146 340 29 353 31 500 56 305 53 670 166 1105 342 143
58 370 151 505 205 598 243 977 357 1451 438 192 32 327 75 494 158 273 135
582 356 940 672 245 216 232 201 240 268 19 147 -26 274 -139 393 -161 171
-431 306 -846 423 -63 18 -117 34 -119 36 -3 2 6 16 20 30 l24 26 -43 -21 -43
-22 -122 31 c-245 61 -437 75 -572 41z m-9224 -4277 l58 -26 -24 -48 c-48 -94
-118 -130 -225 -115 l-49 7 -3 -46 -3 -47 -50 26 c-27 14 -61 34 -74 45 l-23
20 23 20 c76 65 171 99 279 101 53 0 61 2 43 11 -26 12 -36 34 -28 59 8 24 6
24 76 -7z"/>
<path d="M1134 1881 c-85 -62 -446 -457 -472 -516 -8 -16 -52 -124 -98 -240
-47 -115 -91 -220 -99 -232 -9 -13 -37 -34 -63 -47 -61 -33 -50 -32 88 4 68
18 120 37 128 48 14 17 13 53 -4 232 -5 48 -2 75 9 103 l16 37 74 -36 c41 -21
81 -35 89 -32 8 3 22 40 32 84 25 106 51 165 91 204 37 36 40 36 184 9 68 -12
74 -12 86 4 22 30 40 147 40 258 0 91 -3 110 -19 128 -25 28 -35 27 -82 -8z"/>
</g>
</svg>
